<svg width="146" height="80" viewBox="0 0 146 80" fill="none" xmlns="http://www.w3.org/2000/svg">
<path fill-rule="evenodd" clip-rule="evenodd" d="M57.829 12.7327V25.4659L59.751 28.0896C61.8735 30.9873 63.1052 33.162 64.4526 36.3903L65.3462 38.5314L66.7802 37.5764C69.8825 35.5104 71.1712 35.1507 75.506 35.1419C79.2217 35.1339 79.9946 35.2758 82.2295 36.3731C85.0564 37.7611 87.719 40.517 89.2658 43.6551C90.7047 46.5749 90.7493 52.7327 89.3533 55.7603C85.6685 63.7521 75.9851 67.0144 68.3009 62.8527C63.4366 60.2184 61.0091 55.8394 60.4417 48.6749C60.2366 46.0879 59.7704 42.8777 59.4054 41.5409C56.9027 32.3732 49.044 24.24 39.4891 20.9296C36.3563 19.8442 35.3249 19.705 30.4297 19.7067C24.0766 19.7094 21.5589 20.3042 16.201 23.0676C3.28181 29.7309 -3.10798 45.3485 1.48318 59.042C3.21022 64.1931 4.96112 66.9569 9.1846 71.2003C12.2604 74.2902 13.6807 75.3477 16.73 76.818C23.0478 79.8651 30.0907 80.7472 36.781 79.3295C40.1065 78.625 47.13 75.4414 47.503 74.4696C47.6316 74.1338 46.9303 72.7907 45.9443 71.4853C44.9584 70.1794 43.3246 67.3325 42.3135 65.1587C41.3024 62.9849 40.4159 61.1368 40.3425 61.0515C40.2696 60.9662 39.5369 61.4099 38.7144 62.0369C36.4301 63.7795 33.6588 64.616 30.2087 64.6041C26.524 64.5917 23.952 63.7428 21.1687 61.6202C17.0217 58.4574 15.1356 54.0797 15.4966 48.4535C16.1215 38.7206 26.2522 32.3692 35.5834 35.8604C39.8025 37.4394 43.7117 41.8158 44.7507 46.1241C44.9191 46.8219 45.2364 49.4341 45.4556 51.9297C45.9222 57.2425 47.0571 60.9573 49.4581 65.0332C58.4689 80.3282 78.6083 84.6807 93.0036 74.4444C101.117 68.6751 105.999 58.9647 105.999 48.5963C105.999 43.652 110.388 37.7536 115.503 35.8251C119.123 34.4604 124.199 34.6792 127.441 36.339C129.802 37.5486 133.53 41.1945 134.037 42.7898C134.204 43.3183 134.498 43.7505 134.689 43.7505C134.879 43.7505 136.184 42.5079 137.587 40.9885C138.99 39.4696 141.425 36.9087 142.999 35.2983L145.86 32.3705L142.904 29.2364C137.043 23.0238 128.944 19.4447 120.746 19.4447C114.116 19.4447 105.8 22.6579 100.867 27.1267L98.1653 29.5736L97.1104 28.4387C95.4006 26.599 90.8302 23.502 87.792 22.1245C84.3971 20.5853 79.1762 19.4447 75.5246 19.4447H72.8545V9.72234V0H65.3417H57.829V12.7327ZM130.526 61.2216C125.687 65.4062 117.239 65.8061 112.356 62.0816C111.566 61.4788 110.83 60.9856 110.723 60.9856C110.614 60.9856 110.074 62.1947 109.521 63.6725C108.509 66.378 105.784 70.9828 104.129 72.7846C102.903 74.1183 103.277 74.7321 106.283 76.3257C110.636 78.6334 114.181 79.5968 119.299 79.8633C127.928 80.3127 134.645 77.8998 141.574 71.8614L143.341 70.3208L138.045 64.9903C135.132 62.0586 132.646 59.6673 132.521 59.6766C132.396 59.6855 131.498 60.3811 130.526 61.2216Z" fill="#90E900"/>
</svg>
